<svg id="Layer_1" data-name="Layer 1" xmlns="http://www.w3.org/2000/svg" viewBox="0 0 1037.56 1059.42"><path d="M960,21.41a517.29,517.29,0,0,0-201.8,40.71l178.65,102.4q11.58-.71,23.34-.71c207.57,0,375.84,168.27,375.84,375.85a374.7,374.7,0,0,1-29.68,146.64l37.18,203.23a516.89,516.89,0,0,0,135.25-349.34C1478.82,253.68,1246.56,21.41,960,21.41Z" transform="translate(-441.27 -10.48)"/><path d="M1206.27,361.64l-610.64-350A8.5,8.5,0,0,0,583,20.53L709.68,712.88a8.52,8.52,0,0,0,4.14,5.85l610.64,350a8.5,8.5,0,0,0,12.59-8.91L1210.4,367.49A8.52,8.52,0,0,0,1206.27,361.64ZM1033.67,648C908.73,719.82,780.41,591.5,852.22,466.56a92.81,92.81,0,0,1,34.2-34.2c124.94-71.81,253.26,56.52,181.45,181.45A92.74,92.74,0,0,1,1033.67,648Z" transform="translate(-441.27 -10.48)"/><path d="M960.23,915.51c-207.58,0-375.85-168.28-375.85-375.85a374.73,374.73,0,0,1,29.29-145.72L576.52,190.85A516.89,516.89,0,0,0,441.27,540.19C441.27,826.7,673.53,1059,960,1059a517.08,517.08,0,0,0,201.8-40.72L981.54,914.9Q971,915.5,960.23,915.51Z" transform="translate(-441.27 -10.48)"/></svg>